<svg width="108" height="20" viewBox="0 0 108 20" fill="none" xmlns="http://www.w3.org/2000/svg">
<path fill-rule="evenodd" clip-rule="evenodd" d="M2.15263 12.3485L0.945758 13.5553C0.734226 13.7669 0.734226 14.1098 0.945761 14.3214C1.15729 14.5329 1.50026 14.5329 1.71179 14.3214L2.91866 13.1145L6.40445 13.009C6.95614 12.9923 7.48066 12.7657 7.87096 12.3754L11.3189 8.92744C12.6939 7.55245 12.6939 5.32319 11.3189 3.94822C9.94394 2.57325 7.71469 2.57325 6.33969 3.94822L2.89174 7.39618C2.50146 7.78648 2.27483 8.311 2.25814 8.86269L2.15263 12.3485ZM3.27029 11.2308L3.34097 8.89546C3.34931 8.61961 3.46263 8.35737 3.65777 8.1622L7.10575 4.71425C8.05764 3.76235 9.60099 3.76235 10.5529 4.71425C11.5048 5.66615 11.5048 7.20949 10.5529 8.16139L9.39651 9.31777C9.36547 9.31224 9.33354 9.30935 9.3009 9.30935H6.72382L8.98909 7.04407C9.20064 6.83252 9.20064 6.48956 8.98909 6.27804C8.77757 6.0665 8.43459 6.0665 8.22307 6.27804L3.27029 11.2308ZM5.64048 10.3927H8.3216L7.10493 11.6093C6.90977 11.8045 6.64752 11.9178 6.37168 11.9262L4.03631 11.9969L5.64048 10.3927Z" fill="white"/>
<path fill-rule="evenodd" clip-rule="evenodd" d="M2.15263 12.3485L0.945758 13.5553C0.734226 13.7669 0.734226 14.1098 0.945761 14.3214C1.15729 14.5329 1.50026 14.5329 1.71179 14.3214L2.91866 13.1145L6.40445 13.009C6.95614 12.9923 7.48066 12.7657 7.87096 12.3754L11.3189 8.92744C12.6939 7.55245 12.6939 5.32319 11.3189 3.94822C9.94394 2.57325 7.71469 2.57325 6.33969 3.94822L2.89174 7.39618C2.50146 7.78648 2.27483 8.311 2.25814 8.86269L2.15263 12.3485ZM3.27029 11.2308L3.34097 8.89546C3.34931 8.61961 3.46263 8.35737 3.65777 8.1622L7.10575 4.71425C8.05764 3.76235 9.60099 3.76235 10.5529 4.71425C11.5048 5.66615 11.5048 7.20949 10.5529 8.16139L9.39651 9.31777C9.36547 9.31224 9.33354 9.30935 9.3009 9.30935H6.72382L8.98909 7.04407C9.20064 6.83252 9.20064 6.48956 8.98909 6.27804C8.77757 6.0665 8.43459 6.0665 8.22307 6.27804L3.27029 11.2308ZM5.64048 10.3927H8.3216L7.10493 11.6093C6.90977 11.8045 6.64752 11.9178 6.37168 11.9262L4.03631 11.9969L5.64048 10.3927Z" fill="#2FE3C1"/>
<path d="M26.98 9.394V7.812H22.122V4.634H27.386V3.038H20.4V14H22.122V9.394H26.98ZM35.826 10.752C35.84 10.626 35.854 10.458 35.854 10.234C35.854 9.072 35.532 8.148 34.888 7.434C34.244 6.72 33.348 6.37 32.214 6.37C31.136 6.37 30.24 6.748 29.526 7.504C28.812 8.26 28.448 9.17 28.448 10.248C28.448 11.354 28.826 12.292 29.568 13.034C30.324 13.776 31.262 14.14 32.368 14.14C33.712 14.14 34.93 13.496 35.56 12.334L34.356 11.536C33.95 12.306 33.278 12.698 32.34 12.698C31.766 12.698 31.262 12.516 30.828 12.152C30.394 11.774 30.17 11.312 30.156 10.752H35.826ZM32.214 7.798C33.278 7.798 34.104 8.442 34.16 9.492H30.24C30.394 8.47 31.192 7.798 32.214 7.798ZM41.8353 8.932C41.8353 9.352 41.5973 9.562 41.1353 9.562H40.2113C38.8953 9.562 37.1033 10.108 37.1033 11.844V11.928C37.1033 12.572 37.3413 13.104 37.8173 13.51C38.2933 13.916 38.8953 14.126 39.6233 14.126C40.6313 14.126 41.3593 13.748 41.8213 12.978V14H43.4593V9.24C43.4593 8.722 43.3753 8.274 43.2073 7.896C42.7453 6.874 41.8073 6.37 40.4073 6.37C38.8813 6.37 37.8173 7 37.2293 8.274L38.5033 9.002C38.8813 8.204 39.5113 7.812 40.3653 7.812C41.3033 7.812 41.8353 8.316 41.8353 8.932ZM41.8213 10.976C41.8213 12.096 41.0933 12.796 39.9593 12.796C39.2453 12.796 38.7693 12.39 38.7693 11.774C38.7693 11.452 38.9233 11.2 39.2173 11.018C39.5253 10.836 39.8613 10.738 40.2113 10.738H41.8213V10.976ZM49.6237 8.022V6.524H47.7897V4.214H46.1237V6.524H44.7517V8.022H46.1237V11.592C46.1237 13.216 47.0757 14.084 48.7137 14.084C49.0357 14.084 49.3437 14.028 49.6097 13.93V12.516C49.4277 12.558 49.2457 12.572 49.0777 12.572C48.2237 12.572 47.7897 12.222 47.7897 11.326V8.022H49.6237ZM58.0799 14V9.394C58.0799 7.602 57.1139 6.37 55.2799 6.37C54.3699 6.37 53.6139 6.734 53.0399 7.476V2.604H51.3739V14H53.0399V9.842C53.0399 8.708 53.7119 7.952 54.7619 7.952C55.8679 7.952 56.4139 8.694 56.4139 9.814V14H58.0799ZM67.1073 10.752C67.1213 10.626 67.1353 10.458 67.1353 10.234C67.1353 9.072 66.8133 8.148 66.1693 7.434C65.5253 6.72 64.6293 6.37 63.4953 6.37C62.4173 6.37 61.5213 6.748 60.8073 7.504C60.0933 8.26 59.7293 9.17 59.7293 10.248C59.7293 11.354 60.1073 12.292 60.8493 13.034C61.6053 13.776 62.5433 14.14 63.6493 14.14C64.9933 14.14 66.2113 13.496 66.8413 12.334L65.6373 11.536C65.2313 12.306 64.5593 12.698 63.6213 12.698C63.0473 12.698 62.5433 12.516 62.1093 12.152C61.6753 11.774 61.4513 11.312 61.4373 10.752H67.1073ZM63.4953 7.798C64.5593 7.798 65.3853 8.442 65.4413 9.492H61.5213C61.6753 8.47 62.4733 7.798 63.4953 7.798ZM72.9346 6.496C72.8366 6.468 72.7106 6.454 72.5286 6.454C71.6186 6.454 70.9326 6.874 70.4706 7.714V6.524H68.8466V14H70.5126V10.206C70.5126 8.904 71.1846 8.162 72.4586 8.162C72.6406 8.162 72.7946 8.176 72.9346 8.204V6.496ZM79.4107 14.126C80.7967 14.126 82.0287 13.678 82.8547 13.006C83.6807 12.334 84.2127 11.592 84.4787 10.822L82.9107 10.108C82.6447 10.822 82.1827 11.41 81.5387 11.858C80.9087 12.292 80.2087 12.516 79.4527 12.516C78.4447 12.516 77.5627 12.138 76.8207 11.396C76.0787 10.64 75.7147 9.674 75.7147 8.498C75.7147 7.308 76.0927 6.356 76.8347 5.614C77.5767 4.872 78.4587 4.494 79.4527 4.494C81.1747 4.494 82.3227 5.474 82.8687 6.888L84.4227 6.174C84.1847 5.39 83.6527 4.648 82.8687 3.99C82.0847 3.318 80.8667 2.884 79.4807 2.884C77.9547 2.884 76.6527 3.43 75.5467 4.508C74.4407 5.586 73.8947 6.93 73.8947 8.554C73.8947 10.276 74.5667 11.746 75.6167 12.684C76.6667 13.594 78.0107 14.126 79.4107 14.126ZM90.2884 8.932C90.2884 9.352 90.0504 9.562 89.5884 9.562H88.6644C87.3484 9.562 85.5564 10.108 85.5564 11.844V11.928C85.5564 12.572 85.7944 13.104 86.2704 13.51C86.7464 13.916 87.3484 14.126 88.0764 14.126C89.0844 14.126 89.8124 13.748 90.2744 12.978V14H91.9124V9.24C91.9124 8.722 91.8284 8.274 91.6604 7.896C91.1984 6.874 90.2604 6.37 88.8604 6.37C87.3344 6.37 86.2704 7 85.6824 8.274L86.9564 9.002C87.3344 8.204 87.9644 7.812 88.8184 7.812C89.7564 7.812 90.2884 8.316 90.2884 8.932ZM90.2744 10.976C90.2744 12.096 89.5464 12.796 88.4124 12.796C87.6984 12.796 87.2224 12.39 87.2224 11.774C87.2224 11.452 87.3764 11.2 87.6704 11.018C87.9784 10.836 88.3144 10.738 88.6644 10.738H90.2744V10.976ZM98.1592 6.496C98.0612 6.468 97.9352 6.454 97.7532 6.454C96.8432 6.454 96.1572 6.874 95.6952 7.714V6.524H94.0712V14H95.7372V10.206C95.7372 8.904 96.4092 8.162 97.6832 8.162C97.8652 8.162 98.0192 8.176 98.1592 8.204V6.496ZM98.8852 10.248C98.8852 11.284 99.2352 12.194 99.9352 12.964C100.635 13.734 101.517 14.112 102.567 14.112C102.959 14.112 103.407 14.014 103.911 13.804C104.429 13.594 104.807 13.272 105.073 12.838V14H106.697V2.604H105.031V7.588C104.779 7.182 104.415 6.888 103.925 6.692C103.449 6.482 103.015 6.384 102.609 6.384C101.503 6.384 100.593 6.776 99.9072 7.56C99.2212 8.344 98.8852 9.24 98.8852 10.248ZM102.819 7.882C103.477 7.882 104.009 8.106 104.429 8.568C104.849 9.03 105.059 9.59 105.059 10.248C105.059 10.906 104.849 11.466 104.429 11.928C104.023 12.376 103.477 12.6 102.819 12.6C102.161 12.6 101.615 12.376 101.195 11.928C100.789 11.466 100.579 10.906 100.579 10.248C100.579 9.59 100.789 9.03 101.195 8.568C101.615 8.106 102.161 7.882 102.819 7.882Z" fill="white"/>
</svg>
