<svg width="109" height="20" viewBox="0 0 109 20" fill="none" xmlns="http://www.w3.org/2000/svg">
<path d="M12.2415 14.3076C12.2415 13.9678 11.9803 13.6923 11.6581 13.6923H2.32479C2.00262 13.6923 1.74146 13.9678 1.74146 14.3076C1.74146 14.6475 2.00262 14.923 2.32479 14.923H11.6581C11.9803 14.923 12.2415 14.6475 12.2415 14.3076Z" fill="#FFB700"/>
<path d="M4.60542 3.8457L3.6988 4.07647L6.19774 8.6426L3.3535 9.44657L2.70959 8.30724L0.933666 8.0233C0.885325 8.01558 0.849961 8.07026 0.874405 8.11493L2.5548 11.1854C2.57153 11.2159 2.59046 11.2445 2.61127 11.271C2.75698 11.4561 2.99524 11.5373 3.22041 11.4693L3.93873 11.2526L3.93849 11.2518L12.4681 8.84072C12.9493 8.70469 13.235 8.18281 13.106 7.67512C12.977 7.1674 12.4823 6.8661 12.0011 7.00213L8.66291 7.94576L4.60542 3.8457Z" fill="#FFB700"/>
<path d="M27.98 9.394V7.812H23.122V4.634H28.386V3.038H21.4V14H23.122V9.394H27.98ZM36.826 10.752C36.84 10.626 36.854 10.458 36.854 10.234C36.854 9.072 36.532 8.148 35.888 7.434C35.244 6.72 34.348 6.37 33.214 6.37C32.136 6.37 31.24 6.748 30.526 7.504C29.812 8.26 29.448 9.17 29.448 10.248C29.448 11.354 29.826 12.292 30.568 13.034C31.324 13.776 32.262 14.14 33.368 14.14C34.712 14.14 35.93 13.496 36.56 12.334L35.356 11.536C34.95 12.306 34.278 12.698 33.34 12.698C32.766 12.698 32.262 12.516 31.828 12.152C31.394 11.774 31.17 11.312 31.156 10.752H36.826ZM33.214 7.798C34.278 7.798 35.104 8.442 35.16 9.492H31.24C31.394 8.47 32.192 7.798 33.214 7.798ZM42.8353 8.932C42.8353 9.352 42.5973 9.562 42.1353 9.562H41.2113C39.8953 9.562 38.1033 10.108 38.1033 11.844V11.928C38.1033 12.572 38.3413 13.104 38.8173 13.51C39.2933 13.916 39.8953 14.126 40.6233 14.126C41.6313 14.126 42.3593 13.748 42.8213 12.978V14H44.4593V9.24C44.4593 8.722 44.3753 8.274 44.2073 7.896C43.7453 6.874 42.8073 6.37 41.4073 6.37C39.8813 6.37 38.8173 7 38.2293 8.274L39.5033 9.002C39.8813 8.204 40.5113 7.812 41.3653 7.812C42.3033 7.812 42.8353 8.316 42.8353 8.932ZM42.8213 10.976C42.8213 12.096 42.0933 12.796 40.9593 12.796C40.2453 12.796 39.7693 12.39 39.7693 11.774C39.7693 11.452 39.9233 11.2 40.2173 11.018C40.5253 10.836 40.8613 10.738 41.2113 10.738H42.8213V10.976ZM50.6237 8.022V6.524H48.7897V4.214H47.1237V6.524H45.7517V8.022H47.1237V11.592C47.1237 13.216 48.0757 14.084 49.7137 14.084C50.0357 14.084 50.3437 14.028 50.6097 13.93V12.516C50.4277 12.558 50.2457 12.572 50.0777 12.572C49.2237 12.572 48.7897 12.222 48.7897 11.326V8.022H50.6237ZM59.0799 14V9.394C59.0799 7.602 58.1139 6.37 56.2799 6.37C55.3699 6.37 54.6139 6.734 54.0399 7.476V2.604H52.3739V14H54.0399V9.842C54.0399 8.708 54.7119 7.952 55.7619 7.952C56.8679 7.952 57.4139 8.694 57.4139 9.814V14H59.0799ZM68.1073 10.752C68.1213 10.626 68.1353 10.458 68.1353 10.234C68.1353 9.072 67.8133 8.148 67.1693 7.434C66.5253 6.72 65.6293 6.37 64.4953 6.37C63.4173 6.37 62.5213 6.748 61.8073 7.504C61.0933 8.26 60.7293 9.17 60.7293 10.248C60.7293 11.354 61.1073 12.292 61.8493 13.034C62.6053 13.776 63.5433 14.14 64.6493 14.14C65.9933 14.14 67.2113 13.496 67.8413 12.334L66.6373 11.536C66.2313 12.306 65.5593 12.698 64.6213 12.698C64.0473 12.698 63.5433 12.516 63.1093 12.152C62.6753 11.774 62.4513 11.312 62.4373 10.752H68.1073ZM64.4953 7.798C65.5593 7.798 66.3853 8.442 66.4413 9.492H62.5213C62.6753 8.47 63.4733 7.798 64.4953 7.798ZM73.9346 6.496C73.8366 6.468 73.7106 6.454 73.5286 6.454C72.6186 6.454 71.9326 6.874 71.4706 7.714V6.524H69.8466V14H71.5126V10.206C71.5126 8.904 72.1846 8.162 73.4586 8.162C73.6406 8.162 73.7946 8.176 73.9346 8.204V6.496ZM80.4107 14.126C81.7967 14.126 83.0287 13.678 83.8547 13.006C84.6807 12.334 85.2127 11.592 85.4787 10.822L83.9107 10.108C83.6447 10.822 83.1827 11.41 82.5387 11.858C81.9087 12.292 81.2087 12.516 80.4527 12.516C79.4447 12.516 78.5627 12.138 77.8207 11.396C77.0787 10.64 76.7147 9.674 76.7147 8.498C76.7147 7.308 77.0927 6.356 77.8347 5.614C78.5767 4.872 79.4587 4.494 80.4527 4.494C82.1747 4.494 83.3227 5.474 83.8687 6.888L85.4227 6.174C85.1847 5.39 84.6527 4.648 83.8687 3.99C83.0847 3.318 81.8667 2.884 80.4807 2.884C78.9547 2.884 77.6527 3.43 76.5467 4.508C75.4407 5.586 74.8947 6.93 74.8947 8.554C74.8947 10.276 75.5667 11.746 76.6167 12.684C77.6667 13.594 79.0107 14.126 80.4107 14.126ZM91.2884 8.932C91.2884 9.352 91.0504 9.562 90.5884 9.562H89.6644C88.3484 9.562 86.5564 10.108 86.5564 11.844V11.928C86.5564 12.572 86.7944 13.104 87.2704 13.51C87.7464 13.916 88.3484 14.126 89.0764 14.126C90.0844 14.126 90.8124 13.748 91.2744 12.978V14H92.9124V9.24C92.9124 8.722 92.8284 8.274 92.6604 7.896C92.1984 6.874 91.2604 6.37 89.8604 6.37C88.3344 6.37 87.2704 7 86.6824 8.274L87.9564 9.002C88.3344 8.204 88.9644 7.812 89.8184 7.812C90.7564 7.812 91.2884 8.316 91.2884 8.932ZM91.2744 10.976C91.2744 12.096 90.5464 12.796 89.4124 12.796C88.6984 12.796 88.2224 12.39 88.2224 11.774C88.2224 11.452 88.3764 11.2 88.6704 11.018C88.9784 10.836 89.3144 10.738 89.6644 10.738H91.2744V10.976ZM99.1592 6.496C99.0612 6.468 98.9352 6.454 98.7532 6.454C97.8432 6.454 97.1572 6.874 96.6952 7.714V6.524H95.0712V14H96.7372V10.206C96.7372 8.904 97.4092 8.162 98.6832 8.162C98.8652 8.162 99.0192 8.176 99.1592 8.204V6.496ZM99.8852 10.248C99.8852 11.284 100.235 12.194 100.935 12.964C101.635 13.734 102.517 14.112 103.567 14.112C103.959 14.112 104.407 14.014 104.911 13.804C105.429 13.594 105.807 13.272 106.073 12.838V14H107.697V2.604H106.031V7.588C105.779 7.182 105.415 6.888 104.925 6.692C104.449 6.482 104.015 6.384 103.609 6.384C102.503 6.384 101.593 6.776 100.907 7.56C100.221 8.344 99.8852 9.24 99.8852 10.248ZM103.819 7.882C104.477 7.882 105.009 8.106 105.429 8.568C105.849 9.03 106.059 9.59 106.059 10.248C106.059 10.906 105.849 11.466 105.429 11.928C105.023 12.376 104.477 12.6 103.819 12.6C103.161 12.6 102.615 12.376 102.195 11.928C101.789 11.466 101.579 10.906 101.579 10.248C101.579 9.59 101.789 9.03 102.195 8.568C102.615 8.106 103.161 7.882 103.819 7.882Z" fill="white"/>
</svg>
